<?xml version="1.0" encoding="UTF-8"?><svg id="Layer_1" xmlns="http://www.w3.org/2000/svg" viewBox="0 0 353.65 231.56"><g id="Layer_2"><g id="Layer_1-2"><polygon points="222.54 52.75 211.99 52.75 141.66 52.75 141.66 0 131.11 0 131.11 52.75 71.33 52.75 71.33 63.3 131.11 63.3 141.66 63.3 211.99 63.3 211.99 116.04 222.54 116.04 222.54 63.3 282.32 63.3 282.32 52.75 222.54 52.75"/></g></g><path d="M80.8,230.55l-9.97-18.22H22.08l-9.97,18.22H0l39.69-71.24h14.04l39.69,71.24h-12.62ZM27.38,202.76h38.27l-19.13-34.91-19.13,34.91Z"/><path d="M96.38,199.41v-40.1h10.89v39.08c0,15.88,8.75,23.61,24.93,23.61h2.04c16.08,0,24.93-7.73,24.93-23.61v-39.08h10.89v40.1c0,19.54-12.92,32.16-36.84,32.16s-36.84-12.62-36.84-32.16Z"/><path d="M214.12,230.55v-61.67h-34.6v-9.57h80.09v9.57h-34.6v61.67h-10.89Z"/><path d="M260.13,194.93c0-23.61,20.66-36.64,46.81-36.64s46.71,13.03,46.71,36.64-20.66,36.64-46.71,36.64-46.81-13.03-46.81-36.64ZM307.96,222c18.73,0,34.7-9.26,34.7-27.07s-15.98-27.07-34.7-27.07h-2.04c-18.72,0-34.7,9.26-34.7,27.07s15.98,27.07,34.7,27.07h2.04Z"/></svg>