<?xml version="1.0" encoding="UTF-8"?><svg id="Layer_1" xmlns="http://www.w3.org/2000/svg" viewBox="0 0 692.09 71.9"><path d="M79.19,70.81l-9.77-17.85H21.64l-9.77,17.85H0L38.9,1h13.76l38.9,69.81h-12.37ZM26.83,43.58h37.5L45.58,9.38l-18.75,34.21Z"/><path d="M98.44,40.29V1h10.67v38.3c0,15.56,8.58,23.14,24.43,23.14h1.99c15.76,0,24.43-7.58,24.43-23.14V1h10.67v39.29c0,19.15-12.67,31.51-36.1,31.51s-36.1-12.37-36.1-31.51Z"/><path d="M215.82,70.81V10.37h-33.91V1h78.49v9.38h-33.91v60.44h-10.67Z"/><path d="M262.9,35.9c0-23.14,20.25-35.9,45.88-35.9s45.78,12.77,45.78,35.9-20.25,35.9-45.78,35.9-45.88-12.77-45.88-35.9ZM309.77,62.43c18.35,0,34.01-9.08,34.01-26.53s-15.66-26.53-34.01-26.53h-1.99c-18.35,0-34.01,9.08-34.01,26.53s15.66,26.53,34.01,26.53h1.99Z"/><path d="M389.6,26.53h-11.47v-5.49h11.47v-10.97c0-6.48,2.99-8.98,9.47-8.98h12.47v5.48h-11.47c-2.99,0-3.99,1-3.99,3.99v10.47h33.41v49.87h-6.48V26.53h-26.93v44.38h-6.48V26.53ZM422.51,3.59h7.48v8.48h-7.48V3.59Z"/><path d="M449.94,70.91h-6.48V21.04h6.48v8.38c2.89-5.49,9.28-9.38,17.45-9.38,9.97,0,17.45,6.28,17.45,18.25v32.61h-6.48v-30.62c0-9.97-3.99-14.76-11.97-14.76h-.6c-10.77,0-15.86,9.67-15.86,20.45v24.93Z"/><path d="M534.91,70.91h-5.98c-.4-2.19-.5-5.29-.5-7.98-2,4.59-8.88,8.98-17.65,8.98s-15.76-6.28-15.76-14.76c0-10.97,9.47-14.36,17.15-14.96l15.76-1.2v-2c0-8.58-4.79-13.46-12.47-13.46h-.5c-6.38,0-11.77,3.19-12.47,9.47h-6.48c.6-8.88,8.48-14.96,19.15-14.96,12.96,0,19.25,8.78,19.25,18.95v20.94c0,2.99,0,7.48.5,10.97ZM527.93,46.27l-14.46,1c-7.08.5-11.97,3.99-11.97,9.47s4.29,9.67,9.97,9.67h1c6.88,0,15.46-6.08,15.46-13.46v-6.68Z"/><path d="M554.36,70.91h-6.48V21.04h6.48v8.38c2.89-5.49,9.28-9.38,17.45-9.38,9.97,0,17.45,6.28,17.45,18.25v32.61h-6.48v-30.62c0-9.97-3.99-14.76-11.97-14.76h-.6c-10.77,0-15.86,9.67-15.86,20.45v24.93Z"/><path d="M599.74,45.97c0-14.66,8.18-25.93,22.94-25.93,10.77,0,18.45,6.48,19.45,16.95h-6.48c-1.1-6.68-5.78-11.47-12.47-11.47h-1c-10.87,0-15.96,9.57-15.96,20.45s5.09,20.44,15.96,20.44h1c6.68,0,11.17-5.09,12.47-11.47h6.48c-1.79,10.27-8.68,16.95-19.45,16.95-14.76,0-22.94-11.27-22.94-25.93Z"/><path d="M649.71,45.87c0-17.45,10.77-25.83,22.24-25.83,12.17,0,20.15,9.67,20.15,22.44v3.99h-35.9c.2,14.16,7.48,19.95,15.66,19.95h.6c5.98,0,11.17-3.09,13.06-9.77h6.48c-2.19,9.97-9.87,15.26-20.05,15.26-12.47,0-22.24-8.98-22.24-26.03ZM656.39,40.99h29.22c-.3-8.88-5.38-15.46-13.26-15.46h-1c-6.28,0-13.56,3.59-14.96,15.46Z"/></svg>