<?xml version="1.0" encoding="UTF-8"?><svg id="Layer_1" xmlns="http://www.w3.org/2000/svg" viewBox="0 0 584.04 107.74"><defs><style>.cls-1{fill:#fff;}</style></defs><g id="Layer_2"><g id="Layer_1-2"><polygon class="cls-1" points="140.38 48.97 130.59 48.97 65.29 48.97 65.29 0 55.5 0 55.5 48.97 0 48.97 0 58.76 55.5 58.76 65.29 58.76 130.59 58.76 130.59 107.74 140.38 107.74 140.38 58.76 195.88 58.76 195.88 48.97 140.38 48.97"/></g></g><path class="cls-1" d="M311.19,89.49l-9.97-18.22h-48.75l-9.97,18.22h-12.11l39.69-71.24h14.04l39.69,71.24h-12.62ZM257.77,61.7h38.27l-19.13-34.91-19.13,34.91Z"/><path class="cls-1" d="M326.77,58.35V18.25h10.89v39.08c0,15.88,8.75,23.61,24.93,23.61h2.04c16.08,0,24.93-7.73,24.93-23.61V18.25h10.89v40.1c0,19.54-12.92,32.16-36.84,32.16s-36.84-12.62-36.84-32.16Z"/><path class="cls-1" d="M444.51,89.49V27.81h-34.6v-9.57h80.09v9.57h-34.6v61.67h-10.89Z"/><path class="cls-1" d="M490.51,53.87c0-23.61,20.66-36.64,46.81-36.64s46.71,13.03,46.71,36.64-20.66,36.64-46.71,36.64-46.81-13.03-46.81-36.64ZM538.35,80.94c18.73,0,34.7-9.26,34.7-27.07s-15.98-27.07-34.7-27.07h-2.04c-18.72,0-34.7,9.26-34.7,27.07s15.98,27.07,34.7,27.07h2.04Z"/></svg>